<svg xmlns="http://www.w3.org/2000/svg" viewBox="0 0 240 83"><path d="M33.1 61.6c-14.8 0-27.6-10.7-27.6-28.1 0-17.4 12.9-28.1 27.6-28.1 14.9 0 27.7 10.7 27.7 28.1 0 17.3-12.8 28.1-27.7 28.1zm0-52.5C20.7 9.1 10 18 10 33.3c0 15.2 10.8 24.2 23.1 24.2 12.5 0 23.2-9 23.2-24.2.1-15.2-10.7-24.2-23.2-24.2z" fill="#f36424" stroke="#f36424" stroke-width="2" stroke-miterlimit="10"/><path d="M101.5 43.2H71.7c.4 8.7 5.3 14.5 13.6 14.5S98.2 53 98.2 53l2 2.9s-4.6 5.5-15.3 5.5c-10.7 0-17.5-7.9-17.5-19.1 0-11.3 8.1-19 17.8-19 9.6 0 16.6 7.3 16.6 17.2-.1 1.1-.3 2.7-.3 2.7zm-4-3.5c0-4.7-3.6-12.8-12.7-12.8s-12.8 7.7-13 12.8h25.7zm41.8 20.9h-4.2V38.9c0-5.9-1-12-8.9-12s-11.7 6.9-11.7 15.6v18.2h-4.1V24h4.1v6.8c1.8-4.3 6.5-7.4 11.8-7.4 10.5 0 13 6.7 13 15.4v21.8zm20.9.8c-6.8 0-11.1-3.3-13.3-7.1l2.9-2.4c2.4 3.5 6 5.8 10.6 5.8s8.6-2.2 8.6-6.9-6.6-6.4-9.7-7.5c-3.2-1.1-10-3.5-10-10.1s5.8-9.8 11.1-9.8c5.4 0 8.7 1.9 11.5 5.1l-2.5 2.5c-2.5-2.8-5.1-4.2-9.2-4.2s-7 2.1-7 5.9c0 3.8 3.9 5.5 8.5 7 4.6 1.6 11.5 3.9 11.5 10.9-.1 6.9-6.2 10.8-13 10.8zM209.3 24l-18.6 45.2c-2.5 6.1-5.7 6.9-8.2 6.9-2.5 0-4.4-1-4.4-1l.8-4s1.4.8 3.6.8 3.7-.8 5.4-5.8L190 60l-14.7-36h4.3l12.7 31.9L204.9 24h4.4zM223 61.4c-6.8 0-11.1-3.3-13.3-7.1l2.9-2.4c2.4 3.5 6 5.8 10.6 5.8s8.6-2.2 8.6-6.9-6.6-6.4-9.7-7.5c-3.2-1.1-10-3.5-10-10.1s5.8-9.8 11.1-9.8c5.4 0 8.7 1.9 11.5 5.1l-2.5 2.5c-2.5-2.8-5-4.2-9.2-4.2-4.1 0-7 2.1-7 5.9 0 3.8 4 5.5 8.5 7 4.6 1.6 11.5 3.9 11.5 10.9-.1 6.9-6.2 10.8-13 10.8zM82.3 79.3H81l-3.5-8.7h1.2l2.4 6.1.5 1.5.5-1.5 2.4-6.1h1.2l-3.4 8.7zm5.2.1c-.7 0-1.2-.2-1.5-.5-.3-.4-.5-.8-.5-1.5s.2-1.2.7-1.6c.5-.4 1.2-.6 2.2-.6h1.5v-.4c0-.5-.1-.9-.4-1.2-.2-.2-.6-.3-1.1-.3-.5 0-.9.1-1.1.2-.2.2-.3.4-.4.8l-1.2-.1c.2-1.2 1.1-1.8 2.7-1.8.8 0 1.5.2 1.9.6.4.4.6 1 .6 1.7v2.9c0 .3.1.6.1.7.1.2.3.3.5.3.1 0 .2 0 .4-.1v.7c-.3.1-.6.1-.8.1-.4 0-.7-.1-.9-.3-.2-.2-.3-.6-.3-1-.3.5-.6.9-1 1.1-.4.2-.9.3-1.4.3zm.3-.8c.4 0 .8-.1 1.1-.3.3-.2.6-.4.7-.8.2-.3.3-.7.3-1V76h-1.2c-.5 0-.9.1-1.2.2-.3.1-.5.3-.6.5-.1.2-.2.5-.2.8 0 .4.1.6.3.8.1.2.4.3.8.3zm5 .7v-9.2h1.1v9.2h-1.1zm3.9-6.7v4.2c0 .4.1.8.1 1 .1.2.2.4.4.5.2.1.5.2.8.2.5 0 .9-.2 1.3-.5.3-.4.4-.9.4-1.5v-3.9h1.1v6.6h-1V78c-.3.5-.5.8-.9 1-.3.2-.7.3-1.3.3-.7 0-1.3-.2-1.6-.6-.3-.3-.5-1-.5-1.8v-4.4h1.2zm6.8 3.6c0 .8.1 1.4.5 1.8.3.4.8.6 1.4.6.5 0 .9-.1 1.2-.3.3-.2.5-.4.6-.7l1 .3c-.4 1-1.3 1.6-2.7 1.6-1 0-1.7-.3-2.3-.9-.5-.6-.8-1.5-.8-2.6s.3-2 .8-2.5c.5-.6 1.3-.9 2.2-.9 2 0 2.9 1.2 2.9 3.6v.1h-4.8zm3.6-.8c-.1-.7-.2-1.2-.5-1.5-.3-.3-.7-.5-1.3-.5-.6 0-1 .2-1.3.5-.3.4-.5.8-.5 1.5h3.6zm13.8-.5c0 .9-.2 1.7-.5 2.4-.4.7-.9 1.2-1.5 1.5-.6.4-1.4.6-2.2.6h-3.2v-8.7h2.9c1.5 0 2.6.4 3.4 1.1.7.7 1.1 1.7 1.1 3.1zm-1.2 0c0-1.1-.3-1.9-.9-2.5-.6-.6-1.4-.8-2.6-.8h-1.7v6.8h1.9c.6 0 1.2-.1 1.7-.4.5-.3.9-.7 1.1-1.2.4-.6.5-1.2.5-1.9zm3.5 1.3c0 .8.1 1.4.5 1.8.3.4.8.6 1.4.6.5 0 .9-.1 1.2-.3.3-.2.5-.4.6-.7l1 .3c-.4 1-1.3 1.6-2.7 1.6-1 0-1.7-.3-2.3-.9-.5-.6-.8-1.5-.8-2.6s.3-2 .8-2.5c.5-.6 1.3-.9 2.2-.9 1.9 0 2.9 1.2 2.9 3.6v.1h-4.8zm3.6-.8c-.1-.7-.2-1.2-.6-1.5-.3-.3-.7-.5-1.3-.5-.6 0-1 .2-1.3.5-.3.4-.5.8-.5 1.5h3.7zm2.6 3.9v-9.2h1.1v9.2h-1.1zm2.8-8.1v-1.1h1.1v1.1h-1.1zm0 8.1v-6.7h1.1v6.7h-1.1zm5.7 0h-1.3l-2.4-6.7h1.2l1.5 4.3c.1.2.2.7.4 1.5l.2-.7.2-.7 1.5-4.3h1.2l-2.5 6.6zm4.3-3.1c0 .8.2 1.4.5 1.8.3.4.8.6 1.4.6.5 0 .9-.1 1.2-.3.3-.2.5-.4.6-.7l1 .3c-.4 1-1.3 1.6-2.7 1.6-1 0-1.7-.3-2.2-.9-.5-.6-.8-1.5-.8-2.6s.2-2 .8-2.5c.5-.6 1.2-.9 2.2-.9 2 0 3 1.2 3 3.6v.1h-5zm3.6-.8c-.1-.7-.2-1.2-.5-1.5-.3-.3-.7-.5-1.3-.5-.5 0-1 .2-1.3.5-.3.4-.5.8-.5 1.5h3.6zm2.6 3.9v-6.6h1.1v1.4c.2-.6.4-1 .6-1.2.2-.2.6-.3 1-.3.2 0 .3 0 .5.1v1c-.1 0-.3-.1-.6-.1-.5 0-.8.2-1.1.6-.2.4-.4 1-.4 1.7v3.5h-1.1zm5-3.1c0 .8.2 1.4.5 1.8.3.4.8.6 1.4.6.5 0 .9-.1 1.1-.3.3-.2.5-.4.6-.7l1 .3c-.4 1-1.3 1.6-2.7 1.6-1 0-1.8-.3-2.3-.9-.5-.6-.8-1.5-.8-2.6s.2-2 .8-2.5c.5-.6 1.3-.9 2.2-.9 2 0 3 1.2 3 3.6v.1h-4.8zm3.6-.8c0-.7-.2-1.2-.5-1.5-.3-.3-.7-.5-1.3-.5-.5 0-1 .2-1.3.5-.3.4-.5.8-.5 1.5h3.6zm6.8 2.8c-.2.4-.5.7-.8.9-.3.2-.8.3-1.3.3-.8 0-1.5-.3-1.9-.9-.4-.6-.6-1.4-.6-2.6 0-2.3.8-3.5 2.5-3.5.5 0 .9.1 1.3.3.3.2.6.5.8.9V70h1.1v9.2h-1.1v-1zm-3.4-2.2c0 .9.1 1.6.4 2 .2.4.7.6 1.2.6.6 0 1.1-.2 1.4-.6.3-.4.4-1.1.4-2 0-.9-.1-1.5-.4-2-.3-.4-.7-.6-1.4-.6-.6 0-1 .2-1.2.6-.2.4-.4 1.1-.4 2z" fill="#fff"/></svg>