<?xml version="1.0" encoding="utf-8"?>
<!-- Generator: Adobe Illustrator 16.0.0, SVG Export Plug-In . SVG Version: 6.00 Build 0)  -->
<!DOCTYPE svg PUBLIC "-//W3C//DTD SVG 1.1//EN" "http://www.w3.org/Graphics/SVG/1.1/DTD/svg11.dtd">
<svg version="1.1" id="Layer_1" xmlns="http://www.w3.org/2000/svg" xmlns:xlink="http://www.w3.org/1999/xlink" x="0px" y="0px"
	 width="241px" height="85px" viewBox="0 0 241 85" enable-background="new 0 0 241 85" xml:space="preserve">
<g>
	<g>
		<path fill="#F26525" stroke="#F26525" stroke-width="2" stroke-miterlimit="10" d="M33.571,61.265
			c-14.765,0-27.648-10.741-27.648-28.127c0-17.384,12.883-28.126,27.648-28.126c14.86,0,27.658,10.742,27.658,28.126
			C61.229,50.523,48.431,61.265,33.571,61.265z M33.571,8.81c-12.406,0-23.148,8.913-23.148,24.241
			c0,15.173,10.837,24.182,23.148,24.182c12.483,0,23.25-9.009,23.25-24.182C56.82,17.815,46.054,8.81,33.571,8.81z"/>
		<path d="M101.935,42.929H72.133c0.401,8.698,5.292,14.474,13.605,14.474c8.289,0,12.869-4.748,12.869-4.748l1.981,2.926
			c0,0-4.597,5.537-15.261,5.537c-10.661,0-17.542-7.906-17.542-19.125c0-11.309,8.059-18.977,17.78-18.977
			c9.634,0,16.597,7.287,16.597,17.154C102.164,41.35,101.935,42.929,101.935,42.929z M97.983,39.384
			c0-4.748-3.57-12.798-12.655-12.798c-9.076,0-12.793,7.669-13.037,12.798H97.983z"/>
		<path d="M139.766,60.328h-4.179V38.592c0-5.922-1.024-12.006-8.927-12.006c-7.91,0-11.689,6.877-11.689,15.553v18.189h-4.124
			V23.661h4.124v6.781c1.818-4.333,6.541-7.426,11.84-7.426c10.516,0,12.954,6.729,12.954,15.408V60.328z"/>
		<path d="M160.637,61.117c-6.806,0-11.067-3.333-13.349-7.117l2.925-2.373c2.351,3.471,5.992,5.775,10.575,5.775
			c4.592,0,8.614-2.213,8.614-6.947c0-4.748-6.557-6.41-9.726-7.526c-3.159-1.106-10.038-3.472-10.038-10.116
			c0-6.638,5.771-9.797,11.149-9.797c5.386,0,8.692,1.904,11.54,5.15l-2.535,2.518c-2.517-2.757-5.061-4.188-9.156-4.188
			c-4.119,0-7.045,2.052-7.045,5.851s3.949,5.454,8.459,7.038c4.588,1.575,11.452,3.949,11.452,10.901
			C173.503,57.16,167.419,61.117,160.637,61.117z"/>
		<path d="M209.707,23.661l-18.566,45.195c-2.543,6.089-5.707,6.879-8.219,6.879c-2.539,0-4.437-0.96-4.437-0.96l0.794-3.954
			c0,0,1.415,0.795,3.643,0.795c2.203,0,3.715-0.795,5.437-5.758l2.136-6.09L175.73,23.661h4.34l12.655,31.919l12.628-31.919
			H209.707z"/>
		<path d="M223.441,61.117c-6.787,0-11.053-3.333-13.344-7.117l2.916-2.373c2.373,3.471,6.02,5.775,10.593,5.775
			c4.579,0,8.61-2.213,8.61-6.947c0-4.748-6.553-6.41-9.712-7.526c-3.165-1.106-10.043-3.472-10.043-10.116
			c0-6.638,5.776-9.797,11.145-9.797c5.373,0,8.702,1.904,11.535,5.15l-2.528,2.518c-2.522-2.757-5.049-4.188-9.172-4.188
			c-4.102,0-7.025,2.052-7.025,5.851s3.958,5.454,8.458,7.038c4.583,1.575,11.457,3.949,11.457,10.901
			C236.331,57.16,230.246,61.117,223.441,61.117z"/>
	</g>
	<g>
		<path d="M82.709,79.031h-1.225l-3.536-8.707h1.242l2.394,6.121l0.536,1.539l0.502-1.539l2.404-6.121h1.242L82.709,79.031z"/>
		<path d="M87.934,79.146c-0.666,0-1.174-0.184-1.517-0.537c-0.332-0.359-0.499-0.832-0.499-1.461c0-0.693,0.229-1.213,0.684-1.594
			c0.459-0.354,1.178-0.564,2.19-0.574l1.509-0.027v-0.371c0-0.537-0.117-0.938-0.352-1.166c-0.225-0.226-0.595-0.346-1.074-0.346
			c-0.51,0-0.875,0.083-1.1,0.234c-0.225,0.184-0.344,0.441-0.399,0.818l-1.171-0.106c0.209-1.194,1.1-1.8,2.684-1.8
			c0.845,0,1.471,0.188,1.908,0.578c0.423,0.391,0.629,0.951,0.629,1.668v2.883c0,0.336,0.055,0.57,0.135,0.74
			c0.076,0.16,0.252,0.256,0.478,0.256c0.121,0,0.232-0.014,0.367-0.05v0.693c-0.269,0.06-0.567,0.097-0.845,0.097
			c-0.423,0-0.721-0.105-0.9-0.322c-0.198-0.215-0.302-0.551-0.314-1.014h-0.046c-0.288,0.5-0.616,0.867-0.985,1.074
			C88.932,79.041,88.468,79.146,87.934,79.146z M88.195,78.311c0.395,0,0.764-0.092,1.079-0.285c0.31-0.179,0.567-0.44,0.742-0.758
			c0.204-0.321,0.284-0.654,0.284-0.996v-0.547l-1.21,0.027c-0.531,0.01-0.923,0.056-1.203,0.152
			c-0.255,0.096-0.457,0.256-0.611,0.459c-0.149,0.202-0.207,0.482-0.207,0.813c0,0.367,0.089,0.629,0.277,0.846
			C87.542,78.214,87.826,78.311,88.195,78.311z"/>
		<path d="M93.271,79.031v-9.17h1.107v9.17H93.271z"/>
		<path d="M97.159,72.346v4.225c0,0.445,0.055,0.78,0.136,1.028c0.08,0.243,0.22,0.423,0.404,0.532
			c0.19,0.105,0.468,0.152,0.843,0.152c0.526,0,0.943-0.175,1.269-0.547c0.306-0.372,0.45-0.873,0.45-1.516v-3.875h1.125v5.244
			c0,0.775,0,1.254,0.021,1.441h-1.042c0-0.023,0-0.092-0.004-0.18c-0.004-0.086-0.014-0.192-0.019-0.307
			c-0.004-0.119-0.018-0.336-0.027-0.662h-0.023c-0.256,0.465-0.549,0.785-0.882,0.973c-0.333,0.186-0.746,0.291-1.251,0.291
			c-0.724,0-1.273-0.188-1.616-0.557c-0.332-0.349-0.499-0.955-0.499-1.799v-4.445H97.159z"/>
		<path d="M103.964,75.914c0,0.762,0.143,1.354,0.461,1.776c0.331,0.418,0.785,0.62,1.392,0.62c0.491,0,0.863-0.092,1.167-0.289
			c0.282-0.197,0.477-0.445,0.581-0.735l0.98,0.284c-0.406,1.048-1.31,1.576-2.728,1.576c-0.98,0-1.732-0.299-2.254-0.896
			c-0.507-0.568-0.774-1.459-0.774-2.604c0-1.105,0.267-1.961,0.774-2.549c0.522-0.582,1.256-0.881,2.205-0.881
			c1.972,0,2.947,1.193,2.947,3.555v0.143H103.964z M107.564,75.068c-0.055-0.709-0.225-1.213-0.532-1.547
			c-0.287-0.326-0.709-0.479-1.268-0.479c-0.551,0-0.974,0.175-1.288,0.533c-0.305,0.367-0.487,0.85-0.512,1.492H107.564z"/>
		<path d="M121.314,74.582c0,0.895-0.16,1.676-0.521,2.351c-0.352,0.675-0.851,1.198-1.49,1.543
			c-0.634,0.362-1.386,0.556-2.218,0.556h-3.249v-8.707h2.866c1.476,0,2.615,0.373,3.417,1.107
			C120.925,72.171,121.314,73.218,121.314,74.582z M120.142,74.582c0-1.07-0.306-1.896-0.886-2.467
			c-0.595-0.564-1.445-0.845-2.57-0.845h-1.685v6.806h1.945c0.64,0,1.197-0.146,1.683-0.413c0.492-0.29,0.861-0.685,1.111-1.218
			C120.006,75.918,120.142,75.303,120.142,74.582z"/>
		<path d="M123.639,75.914c0,0.762,0.143,1.354,0.473,1.776c0.316,0.418,0.776,0.62,1.383,0.62c0.481,0,0.867-0.092,1.156-0.289
			c0.281-0.197,0.487-0.445,0.598-0.735l0.969,0.284c-0.404,1.048-1.305,1.576-2.723,1.576c-0.988,0-1.731-0.299-2.26-0.896
			c-0.51-0.568-0.775-1.459-0.775-2.604c0-1.105,0.266-1.961,0.775-2.549c0.528-0.582,1.254-0.881,2.227-0.881
			c1.947,0,2.931,1.193,2.931,3.555v0.143H123.639z M127.258,75.068c-0.074-0.709-0.244-1.213-0.557-1.547
			c-0.287-0.326-0.707-0.479-1.263-0.479c-0.551,0-0.982,0.175-1.286,0.533c-0.316,0.367-0.49,0.85-0.504,1.492H127.258z"/>
		<path d="M129.811,79.031v-9.17h1.106v9.17H129.811z"/>
		<path d="M132.615,70.932v-1.07h1.107v1.07H132.615z M132.615,79.031v-6.686h1.107v6.686H132.615z"/>
		<path d="M138.36,79.031h-1.322l-2.42-6.686h1.194l1.45,4.334c0.064,0.172,0.207,0.666,0.441,1.465l0.215-0.711l0.244-0.744
			l1.506-4.344h1.189L138.36,79.031z"/>
		<path d="M142.595,75.914c0,0.762,0.17,1.354,0.482,1.776c0.307,0.418,0.775,0.62,1.387,0.62c0.477,0,0.871-0.092,1.152-0.289
			c0.303-0.197,0.491-0.445,0.596-0.735l0.965,0.284c-0.39,1.048-1.299,1.576-2.713,1.576c-0.992,0-1.74-0.299-2.25-0.896
			c-0.529-0.568-0.776-1.459-0.776-2.604c0-1.105,0.247-1.961,0.776-2.549c0.51-0.582,1.248-0.881,2.203-0.881
			c1.971,0,2.953,1.193,2.953,3.555v0.143H142.595z M146.218,75.068c-0.055-0.709-0.238-1.213-0.528-1.547
			c-0.313-0.326-0.735-0.479-1.286-0.479c-0.537,0-0.959,0.175-1.29,0.533c-0.312,0.367-0.474,0.85-0.502,1.492H146.218z"/>
		<path d="M148.803,79.031v-5.139c0-0.473-0.019-0.982-0.046-1.547h1.061c0.037,0.748,0.046,1.203,0.046,1.363h0.019
			c0.188-0.574,0.386-0.969,0.62-1.18s0.556-0.313,0.969-0.313c0.156,0,0.313,0.023,0.45,0.073v1.006
			c-0.134-0.037-0.345-0.06-0.583-0.06c-0.455,0-0.813,0.197-1.061,0.602c-0.239,0.386-0.368,0.955-0.368,1.708v3.485H148.803z"/>
		<path d="M153.836,75.914c0,0.762,0.17,1.354,0.478,1.776c0.312,0.418,0.78,0.62,1.4,0.62c0.464,0,0.854-0.092,1.139-0.289
			c0.304-0.197,0.496-0.445,0.597-0.735l0.969,0.284c-0.39,1.048-1.299,1.576-2.704,1.576c-1.001,0-1.755-0.299-2.259-0.896
			c-0.529-0.568-0.771-1.459-0.771-2.604c0-1.105,0.242-1.961,0.771-2.549c0.504-0.582,1.258-0.881,2.205-0.881
			c1.973,0,2.951,1.193,2.951,3.555v0.143H153.836z M157.457,75.068c-0.049-0.709-0.246-1.213-0.531-1.547
			c-0.313-0.326-0.734-0.479-1.29-0.479c-0.532,0-0.955,0.175-1.272,0.533c-0.32,0.367-0.486,0.85-0.51,1.492H157.457z"/>
		<path d="M164.241,77.943c-0.202,0.422-0.487,0.744-0.822,0.923c-0.34,0.179-0.758,0.28-1.267,0.28
			c-0.836,0-1.471-0.287-1.855-0.854c-0.404-0.569-0.602-1.424-0.602-2.583c0-2.321,0.826-3.492,2.457-3.492
			c0.514,0,0.932,0.092,1.267,0.289c0.338,0.18,0.62,0.464,0.822,0.877h0.014l-0.014-0.758v-2.764h1.108v7.787
			c0,0.699,0.012,1.158,0.039,1.383h-1.069c-0.015-0.082-0.028-0.221-0.046-0.459c-0.01-0.244-0.01-0.441-0.01-0.629H164.241z
			 M160.871,75.67c0,0.939,0.128,1.607,0.367,2.021c0.238,0.396,0.652,0.593,1.207,0.593c0.625,0,1.079-0.217,1.369-0.648
			c0.279-0.436,0.427-1.111,0.427-2.033c0-0.883-0.147-1.521-0.427-1.952c-0.29-0.404-0.744-0.606-1.355-0.606
			c-0.56,0-0.973,0.202-1.221,0.611C160.999,74.081,160.871,74.756,160.871,75.67z"/>
	</g>
</g>
</svg>
