<?xml version="1.0" encoding="utf-8"?>
<!-- Generator: Adobe Illustrator 22.0.0, SVG Export Plug-In . SVG Version: 6.00 Build 0)  -->
<svg version="1.1" id="Layer_1" xmlns="http://www.w3.org/2000/svg" xmlns:xlink="http://www.w3.org/1999/xlink" x="0px" y="0px"
	 viewBox="0 0 240 83" style="enable-background:new 0 0 240 83;" xml:space="preserve">
<style type="text/css">
	.st0{fill:#F36424;stroke:#F36424;stroke-width:2;stroke-miterlimit:10;}
	.st1{fill:#FFFFFF;}
</style>
<g>
	<g>
		<path class="st0" d="M33.1,61.6c-14.8,0-27.6-10.7-27.6-28.1c0-17.4,12.9-28.1,27.6-28.1c14.9,0,27.7,10.7,27.7,28.1
			C60.8,50.8,48,61.6,33.1,61.6z M33.1,9.1C20.7,9.1,10,18,10,33.3c0,15.2,10.8,24.2,23.1,24.2c12.5,0,23.2-9,23.2-24.2
			C56.4,18.1,45.6,9.1,33.1,9.1z"/>
		<path class="st1" d="M101.5,43.2H71.7c0.4,8.7,5.3,14.5,13.6,14.5c8.3,0,12.9-4.7,12.9-4.7l2,2.9c0,0-4.6,5.5-15.3,5.5
			c-10.7,0-17.5-7.9-17.5-19.1c0-11.3,8.1-19,17.8-19c9.6,0,16.6,7.3,16.6,17.2C101.7,41.6,101.5,43.2,101.5,43.2z M97.5,39.7
			c0-4.7-3.6-12.8-12.7-12.8c-9.1,0-12.8,7.7-13,12.8H97.5z"/>
		<path class="st1" d="M139.3,60.6h-4.2V38.9c0-5.9-1-12-8.9-12c-7.9,0-11.7,6.9-11.7,15.6v18.2h-4.1V24h4.1v6.8
			c1.8-4.3,6.5-7.4,11.8-7.4c10.5,0,13,6.7,13,15.4V60.6z"/>
		<path class="st1" d="M160.2,61.4c-6.8,0-11.1-3.3-13.3-7.1l2.9-2.4c2.4,3.5,6,5.8,10.6,5.8c4.6,0,8.6-2.2,8.6-6.9
			c0-4.7-6.6-6.4-9.7-7.5c-3.2-1.1-10-3.5-10-10.1c0-6.6,5.8-9.8,11.1-9.8c5.4,0,8.7,1.9,11.5,5.1l-2.5,2.5
			c-2.5-2.8-5.1-4.2-9.2-4.2c-4.1,0-7,2.1-7,5.9c0,3.8,3.9,5.5,8.5,7c4.6,1.6,11.5,3.9,11.5,10.9C173.1,57.5,167,61.4,160.2,61.4z"
			/>
		<path class="st1" d="M209.3,24l-18.6,45.2c-2.5,6.1-5.7,6.9-8.2,6.9c-2.5,0-4.4-1-4.4-1l0.8-4c0,0,1.4,0.8,3.6,0.8
			c2.2,0,3.7-0.8,5.4-5.8l2.1-6.1L175.3,24h4.3l12.7,31.9L204.9,24H209.3z"/>
		<path class="st1" d="M223,61.4c-6.8,0-11.1-3.3-13.3-7.1l2.9-2.4c2.4,3.5,6,5.8,10.6,5.8c4.6,0,8.6-2.2,8.6-6.9
			c0-4.7-6.6-6.4-9.7-7.5c-3.2-1.1-10-3.5-10-10.1c0-6.6,5.8-9.8,11.1-9.8c5.4,0,8.7,1.9,11.5,5.1l-2.5,2.5c-2.5-2.8-5-4.2-9.2-4.2
			c-4.1,0-7,2.1-7,5.9c0,3.8,4,5.5,8.5,7c4.6,1.6,11.5,3.9,11.5,10.9C235.9,57.5,229.8,61.4,223,61.4z"/>
	</g>
	<g>
		<path class="st1" d="M82.3,79.3H81l-3.5-8.7h1.2l2.4,6.1l0.5,1.5l0.5-1.5l2.4-6.1h1.2L82.3,79.3z"/>
		<path class="st1" d="M87.5,79.4c-0.7,0-1.2-0.2-1.5-0.5c-0.3-0.4-0.5-0.8-0.5-1.5c0-0.7,0.2-1.2,0.7-1.6c0.5-0.4,1.2-0.6,2.2-0.6
			l1.5,0v-0.4c0-0.5-0.1-0.9-0.4-1.2c-0.2-0.2-0.6-0.3-1.1-0.3c-0.5,0-0.9,0.1-1.1,0.2c-0.2,0.2-0.3,0.4-0.4,0.8l-1.2-0.1
			c0.2-1.2,1.1-1.8,2.7-1.8c0.8,0,1.5,0.2,1.9,0.6c0.4,0.4,0.6,1,0.6,1.7v2.9c0,0.3,0.1,0.6,0.1,0.7c0.1,0.2,0.3,0.3,0.5,0.3
			c0.1,0,0.2,0,0.4-0.1v0.7c-0.3,0.1-0.6,0.1-0.8,0.1c-0.4,0-0.7-0.1-0.9-0.3c-0.2-0.2-0.3-0.6-0.3-1h0c-0.3,0.5-0.6,0.9-1,1.1
			C88.5,79.3,88,79.4,87.5,79.4z M87.8,78.6c0.4,0,0.8-0.1,1.1-0.3c0.3-0.2,0.6-0.4,0.7-0.8c0.2-0.3,0.3-0.7,0.3-1V76l-1.2,0
			c-0.5,0-0.9,0.1-1.2,0.2c-0.3,0.1-0.5,0.3-0.6,0.5c-0.1,0.2-0.2,0.5-0.2,0.8c0,0.4,0.1,0.6,0.3,0.8C87.1,78.5,87.4,78.6,87.8,78.6
			z"/>
		<path class="st1" d="M92.8,79.3v-9.2h1.1v9.2H92.8z"/>
		<path class="st1" d="M96.7,72.6v4.2c0,0.4,0.1,0.8,0.1,1c0.1,0.2,0.2,0.4,0.4,0.5c0.2,0.1,0.5,0.2,0.8,0.2c0.5,0,0.9-0.2,1.3-0.5
			c0.3-0.4,0.4-0.9,0.4-1.5v-3.9h1.1v5.2c0,0.8,0,1.3,0,1.4h-1c0,0,0-0.1,0-0.2c0-0.1,0-0.2,0-0.3c0-0.1,0-0.3,0-0.7h0
			c-0.3,0.5-0.5,0.8-0.9,1c-0.3,0.2-0.7,0.3-1.3,0.3c-0.7,0-1.3-0.2-1.6-0.6c-0.3-0.3-0.5-1-0.5-1.8v-4.4H96.7z"/>
		<path class="st1" d="M103.5,76.2c0,0.8,0.1,1.4,0.5,1.8c0.3,0.4,0.8,0.6,1.4,0.6c0.5,0,0.9-0.1,1.2-0.3c0.3-0.2,0.5-0.4,0.6-0.7
			l1,0.3c-0.4,1-1.3,1.6-2.7,1.6c-1,0-1.7-0.3-2.3-0.9c-0.5-0.6-0.8-1.5-0.8-2.6c0-1.1,0.3-2,0.8-2.5c0.5-0.6,1.3-0.9,2.2-0.9
			c2,0,2.9,1.2,2.9,3.6v0.1H103.5z M107.1,75.4c-0.1-0.7-0.2-1.2-0.5-1.5c-0.3-0.3-0.7-0.5-1.3-0.5c-0.6,0-1,0.2-1.3,0.5
			c-0.3,0.4-0.5,0.8-0.5,1.5H107.1z"/>
		<path class="st1" d="M120.9,74.9c0,0.9-0.2,1.7-0.5,2.4c-0.4,0.7-0.9,1.2-1.5,1.5c-0.6,0.4-1.4,0.6-2.2,0.6h-3.2v-8.7h2.9
			c1.5,0,2.6,0.4,3.4,1.1C120.5,72.5,120.9,73.5,120.9,74.9z M119.7,74.9c0-1.1-0.3-1.9-0.9-2.5c-0.6-0.6-1.4-0.8-2.6-0.8h-1.7v6.8
			h1.9c0.6,0,1.2-0.1,1.7-0.4c0.5-0.3,0.9-0.7,1.1-1.2C119.6,76.2,119.7,75.6,119.7,74.9z"/>
		<path class="st1" d="M123.2,76.2c0,0.8,0.1,1.4,0.5,1.8c0.3,0.4,0.8,0.6,1.4,0.6c0.5,0,0.9-0.1,1.2-0.3c0.3-0.2,0.5-0.4,0.6-0.7
			l1,0.3c-0.4,1-1.3,1.6-2.7,1.6c-1,0-1.7-0.3-2.3-0.9c-0.5-0.6-0.8-1.5-0.8-2.6c0-1.1,0.3-2,0.8-2.5c0.5-0.6,1.3-0.9,2.2-0.9
			c1.9,0,2.9,1.2,2.9,3.6v0.1H123.2z M126.8,75.4c-0.1-0.7-0.2-1.2-0.6-1.5c-0.3-0.3-0.7-0.5-1.3-0.5c-0.6,0-1,0.2-1.3,0.5
			c-0.3,0.4-0.5,0.8-0.5,1.5H126.8z"/>
		<path class="st1" d="M129.4,79.3v-9.2h1.1v9.2H129.4z"/>
		<path class="st1" d="M132.2,71.2v-1.1h1.1v1.1H132.2z M132.2,79.3v-6.7h1.1v6.7H132.2z"/>
		<path class="st1" d="M137.9,79.3h-1.3l-2.4-6.7h1.2l1.5,4.3c0.1,0.2,0.2,0.7,0.4,1.5l0.2-0.7l0.2-0.7l1.5-4.3h1.2L137.9,79.3z"/>
		<path class="st1" d="M142.2,76.2c0,0.8,0.2,1.4,0.5,1.8c0.3,0.4,0.8,0.6,1.4,0.6c0.5,0,0.9-0.1,1.2-0.3c0.3-0.2,0.5-0.4,0.6-0.7
			l1,0.3c-0.4,1-1.3,1.6-2.7,1.6c-1,0-1.7-0.3-2.2-0.9c-0.5-0.6-0.8-1.5-0.8-2.6c0-1.1,0.2-2,0.8-2.5c0.5-0.6,1.2-0.9,2.2-0.9
			c2,0,3,1.2,3,3.6v0.1H142.2z M145.8,75.4c-0.1-0.7-0.2-1.2-0.5-1.5c-0.3-0.3-0.7-0.5-1.3-0.5c-0.5,0-1,0.2-1.3,0.5
			c-0.3,0.4-0.5,0.8-0.5,1.5H145.8z"/>
		<path class="st1" d="M148.4,79.3v-5.1c0-0.5,0-1,0-1.5h1.1c0,0.7,0,1.2,0,1.4h0c0.2-0.6,0.4-1,0.6-1.2c0.2-0.2,0.6-0.3,1-0.3
			c0.2,0,0.3,0,0.5,0.1v1c-0.1,0-0.3-0.1-0.6-0.1c-0.5,0-0.8,0.2-1.1,0.6c-0.2,0.4-0.4,1-0.4,1.7v3.5H148.4z"/>
		<path class="st1" d="M153.4,76.2c0,0.8,0.2,1.4,0.5,1.8c0.3,0.4,0.8,0.6,1.4,0.6c0.5,0,0.9-0.1,1.1-0.3c0.3-0.2,0.5-0.4,0.6-0.7
			l1,0.3c-0.4,1-1.3,1.6-2.7,1.6c-1,0-1.8-0.3-2.3-0.9c-0.5-0.6-0.8-1.5-0.8-2.6c0-1.1,0.2-2,0.8-2.5c0.5-0.6,1.3-0.9,2.2-0.9
			c2,0,3,1.2,3,3.6v0.1H153.4z M157,75.4c0-0.7-0.2-1.2-0.5-1.5c-0.3-0.3-0.7-0.5-1.3-0.5c-0.5,0-1,0.2-1.3,0.5
			c-0.3,0.4-0.5,0.8-0.5,1.5H157z"/>
		<path class="st1" d="M163.8,78.2c-0.2,0.4-0.5,0.7-0.8,0.9c-0.3,0.2-0.8,0.3-1.3,0.3c-0.8,0-1.5-0.3-1.9-0.9
			c-0.4-0.6-0.6-1.4-0.6-2.6c0-2.3,0.8-3.5,2.5-3.5c0.5,0,0.9,0.1,1.3,0.3c0.3,0.2,0.6,0.5,0.8,0.9h0l0-0.8v-2.8h1.1v7.8
			c0,0.7,0,1.2,0,1.4h-1.1c0-0.1,0-0.2,0-0.5C163.8,78.6,163.8,78.4,163.8,78.2L163.8,78.2z M160.4,76c0,0.9,0.1,1.6,0.4,2
			c0.2,0.4,0.7,0.6,1.2,0.6c0.6,0,1.1-0.2,1.4-0.6c0.3-0.4,0.4-1.1,0.4-2c0-0.9-0.1-1.5-0.4-2c-0.3-0.4-0.7-0.6-1.4-0.6
			c-0.6,0-1,0.2-1.2,0.6C160.6,74.4,160.4,75.1,160.4,76z"/>
	</g>
</g>
</svg>
