<svg xmlns="http://www.w3.org/2000/svg" width="241" height="85"><path fill="#F26525" stroke="#F26525" stroke-width="2" stroke-miterlimit="10" d="M33.571 61.265c-14.765 0-27.648-10.741-27.648-28.127 0-17.384 12.883-28.126 27.648-28.126 14.86 0 27.658 10.742 27.658 28.126 0 17.385-12.798 28.127-27.658 28.127zm0-52.455c-12.406 0-23.148 8.913-23.148 24.241 0 15.173 10.837 24.182 23.148 24.182 12.483 0 23.25-9.009 23.25-24.182C56.82 17.815 46.054 8.81 33.571 8.81z"/><path d="M101.935 42.929H72.133c.401 8.698 5.292 14.474 13.605 14.474 8.289 0 12.869-4.748 12.869-4.748l1.981 2.926s-4.597 5.537-15.261 5.537c-10.661 0-17.542-7.906-17.542-19.125 0-11.309 8.059-18.977 17.78-18.977 9.634 0 16.597 7.287 16.597 17.154.002 1.18-.227 2.759-.227 2.759zm-3.952-3.545c0-4.748-3.57-12.798-12.655-12.798-9.076 0-12.793 7.669-13.037 12.798h25.692zm41.783 20.944h-4.179V38.592c0-5.922-1.024-12.006-8.927-12.006-7.91 0-11.689 6.877-11.689 15.553v18.189h-4.124V23.661h4.124v6.781c1.818-4.333 6.541-7.426 11.84-7.426 10.516 0 12.954 6.729 12.954 15.408v21.904zm20.871.789c-6.806 0-11.067-3.333-13.349-7.117l2.925-2.373c2.351 3.471 5.992 5.775 10.575 5.775 4.592 0 8.614-2.213 8.614-6.947 0-4.748-6.557-6.41-9.726-7.526-3.159-1.106-10.038-3.472-10.038-10.116 0-6.638 5.771-9.797 11.149-9.797 5.386 0 8.692 1.904 11.54 5.15l-2.535 2.518c-2.517-2.757-5.061-4.188-9.156-4.188-4.119 0-7.045 2.052-7.045 5.851s3.949 5.454 8.459 7.038c4.588 1.575 11.452 3.949 11.452 10.901.001 6.874-6.083 10.831-12.865 10.831zm49.07-37.456l-18.566 45.195c-2.543 6.089-5.707 6.879-8.219 6.879-2.539 0-4.437-.96-4.437-.96l.794-3.954s1.415.795 3.643.795c2.203 0 3.715-.795 5.437-5.758l2.136-6.09-14.765-36.107h4.34l12.655 31.919 12.628-31.919h4.354zm13.734 37.456c-6.787 0-11.053-3.333-13.344-7.117l2.916-2.373c2.373 3.471 6.02 5.775 10.593 5.775 4.579 0 8.61-2.213 8.61-6.947 0-4.748-6.553-6.41-9.712-7.526-3.165-1.106-10.043-3.472-10.043-10.116 0-6.638 5.776-9.797 11.145-9.797 5.373 0 8.702 1.904 11.535 5.15l-2.528 2.518c-2.522-2.757-5.049-4.188-9.172-4.188-4.102 0-7.025 2.052-7.025 5.851s3.958 5.454 8.458 7.038c4.583 1.575 11.457 3.949 11.457 10.901 0 6.874-6.085 10.831-12.89 10.831zM82.709 79.031h-1.225l-3.536-8.707h1.242l2.394 6.121.536 1.539.502-1.539 2.404-6.121h1.242l-3.559 8.707zm5.225.115c-.666 0-1.174-.184-1.517-.537-.332-.359-.499-.832-.499-1.461 0-.693.229-1.213.684-1.594.459-.354 1.178-.564 2.19-.574l1.509-.027v-.371c0-.537-.117-.938-.352-1.166-.225-.226-.595-.346-1.074-.346-.51 0-.875.083-1.1.234-.225.184-.344.441-.399.818l-1.171-.106c.209-1.194 1.1-1.8 2.684-1.8.845 0 1.471.188 1.908.578.423.391.629.951.629 1.668v2.883c0 .336.055.57.135.74.076.16.252.256.478.256.121 0 .232-.014.367-.05v.693c-.269.06-.567.097-.845.097-.423 0-.721-.105-.9-.322-.198-.215-.302-.551-.314-1.014h-.046c-.288.5-.616.867-.985 1.074-.384.222-.848.327-1.382.327zm.261-.835c.395 0 .764-.092 1.079-.285.31-.179.567-.44.742-.758.204-.321.284-.654.284-.996v-.547l-1.21.027c-.531.01-.923.056-1.203.152a1.358 1.358 0 0 0-.611.459c-.149.202-.207.482-.207.813 0 .367.089.629.277.846.196.192.48.289.849.289zm5.076.72v-9.17h1.107v9.17h-1.107zm3.888-6.685v4.225c0 .445.055.78.136 1.028.08.243.22.423.404.532.19.105.468.152.843.152.526 0 .943-.175 1.269-.547.306-.372.45-.873.45-1.516v-3.875h1.125v5.244c0 .775 0 1.254.021 1.441h-1.042c0-.023 0-.092-.004-.18-.004-.086-.014-.192-.019-.307-.004-.119-.018-.336-.027-.662h-.023c-.256.465-.549.785-.882.973-.333.186-.746.291-1.251.291-.724 0-1.273-.188-1.616-.557-.332-.349-.499-.955-.499-1.799v-4.445h1.115zm6.805 3.568c0 .762.143 1.354.461 1.776.331.418.785.62 1.392.62.491 0 .863-.092 1.167-.289.282-.197.477-.445.581-.735l.98.284c-.406 1.048-1.31 1.576-2.728 1.576-.98 0-1.732-.299-2.254-.896-.507-.568-.774-1.459-.774-2.604 0-1.105.267-1.961.774-2.549.522-.582 1.256-.881 2.205-.881 1.972 0 2.947 1.193 2.947 3.555v.143h-4.751zm3.6-.846c-.055-.709-.225-1.213-.532-1.547-.287-.326-.709-.479-1.268-.479-.551 0-.974.175-1.288.533-.305.367-.487.85-.512 1.492h3.6zm13.75-.486c0 .895-.16 1.676-.521 2.351-.352.675-.851 1.198-1.49 1.543-.634.362-1.386.556-2.218.556h-3.249v-8.707h2.866c1.476 0 2.615.373 3.417 1.107.806.739 1.195 1.786 1.195 3.15zm-1.172 0c0-1.07-.306-1.896-.886-2.467-.595-.564-1.445-.845-2.57-.845h-1.685v6.806h1.945c.64 0 1.197-.146 1.683-.413.492-.29.861-.685 1.111-1.218.266-.527.402-1.142.402-1.863zm3.497 1.332c0 .762.143 1.354.473 1.776.316.418.776.62 1.383.62.481 0 .867-.092 1.156-.289.281-.197.487-.445.598-.735l.969.284c-.404 1.048-1.305 1.576-2.723 1.576-.988 0-1.731-.299-2.26-.896-.51-.568-.775-1.459-.775-2.604 0-1.105.266-1.961.775-2.549.528-.582 1.254-.881 2.227-.881 1.947 0 2.931 1.193 2.931 3.555v.143h-4.754zm3.619-.846c-.074-.709-.244-1.213-.557-1.547-.287-.326-.707-.479-1.263-.479-.551 0-.982.175-1.286.533-.316.367-.49.85-.504 1.492h3.61zm2.553 3.963v-9.17h1.106v9.17h-1.106zm2.804-8.099v-1.07h1.107v1.07h-1.107zm0 8.099v-6.686h1.107v6.686h-1.107zm5.745 0h-1.322l-2.42-6.686h1.194l1.45 4.334c.064.172.207.666.441 1.465l.215-.711.244-.744 1.506-4.344h1.189l-2.497 6.686zm4.235-3.117c0 .762.17 1.354.482 1.776.307.418.775.62 1.387.62.477 0 .871-.092 1.152-.289.303-.197.491-.445.596-.735l.965.284c-.39 1.048-1.299 1.576-2.713 1.576-.992 0-1.74-.299-2.25-.896-.529-.568-.776-1.459-.776-2.604 0-1.105.247-1.961.776-2.549.51-.582 1.248-.881 2.203-.881 1.971 0 2.953 1.193 2.953 3.555v.143h-4.775zm3.623-.846c-.055-.709-.238-1.213-.528-1.547-.313-.326-.735-.479-1.286-.479-.537 0-.959.175-1.29.533-.312.367-.474.85-.502 1.492h3.606zm2.585 3.963v-5.139c0-.473-.019-.982-.046-1.547h1.061c.037.748.046 1.203.046 1.363h.019c.188-.574.386-.969.62-1.18s.556-.313.969-.313c.156 0 .313.023.45.073v1.006a2.383 2.383 0 0 0-.583-.06c-.455 0-.813.197-1.061.602-.239.386-.368.955-.368 1.708v3.485h-1.107zm5.033-3.117c0 .762.17 1.354.478 1.776.312.418.78.62 1.4.62.464 0 .854-.092 1.139-.289a1.42 1.42 0 0 0 .597-.735l.969.284c-.39 1.048-1.299 1.576-2.704 1.576-1.001 0-1.755-.299-2.259-.896-.529-.568-.771-1.459-.771-2.604 0-1.105.242-1.961.771-2.549.504-.582 1.258-.881 2.205-.881 1.973 0 2.951 1.193 2.951 3.555v.143h-4.776zm3.621-.846c-.049-.709-.246-1.213-.531-1.547-.313-.326-.734-.479-1.29-.479-.532 0-.955.175-1.272.533-.32.367-.486.85-.51 1.492h3.603zm6.784 2.875c-.202.422-.487.744-.822.923-.34.179-.758.28-1.267.28-.836 0-1.471-.287-1.855-.854-.404-.569-.602-1.424-.602-2.583 0-2.321.826-3.492 2.457-3.492.514 0 .932.092 1.267.289.338.18.62.464.822.877h.014l-.014-.758v-2.764h1.108v7.787c0 .699.012 1.158.039 1.383h-1.069a5.284 5.284 0 0 1-.046-.459c-.01-.244-.01-.441-.01-.629h-.022zm-3.37-2.273c0 .939.128 1.607.367 2.021.238.396.652.593 1.207.593.625 0 1.079-.217 1.369-.648.279-.436.427-1.111.427-2.033 0-.883-.147-1.521-.427-1.952-.29-.404-.744-.606-1.355-.606-.56 0-.973.202-1.221.611-.239.425-.367 1.1-.367 2.014z"/></svg>